<svg xmlns="http://www.w3.org/2000/svg" width="24" height="24" fill="none"><path fill="#1B1B21" d="M22.33 3.261C20.315 6.608 16.483 8.87 12.087 8.87c-4.397 0-8.229-2.26-10.243-5.608L8.314 0c.77 1.195 2.172 1.994 3.773 1.994 1.6 0 3.001-.799 3.773-1.994l6.47 3.261ZM.187 6.887c4.1.172 7.985 2.352 9.97 6.025 1.985 3.672 1.56 7.894-.72 11.088l-6.03-3.932a3.894 3.894 0 0 0 .197-4.052C2.881 14.679 1.487 13.869 0 13.764l.187-6.877ZM14.47 23.898c-2.25-3.212-2.637-7.437-.619-11.093 2.018-3.657 5.923-5.806 10.024-5.945L24 13.738c-1.488.093-2.89.892-3.625 2.223a3.896 3.896 0 0 0 .16 4.054l-6.065 3.883Z"/></svg>