<svg xmlns="http://www.w3.org/2000/svg" width="24" height="24" fill="none"><path fill="#fff" d="M22.33 3.261C20.315 6.608 16.483 8.87 12.087 8.87c-4.397 0-8.228-2.26-10.243-5.608L8.314 0c.771 1.195 2.172 1.994 3.773 1.994 1.6 0 3.001-.799 3.773-1.994l6.47 3.261ZM.187 6.888c4.1.172 7.985 2.352 9.97 6.024 1.985 3.673 1.56 7.894-.72 11.088l-6.03-3.931a3.896 3.896 0 0 0 .197-4.053C2.881 14.68 1.487 13.87 0 13.765l.187-6.877Zm14.285 17.011c-2.251-3.213-2.638-7.437-.62-11.094C15.872 9.15 19.776 7 23.877 6.86l.125 6.878c-1.488.094-2.89.892-3.624 2.223a3.896 3.896 0 0 0 .16 4.054L14.472 23.9Z"/></svg>